<svg width="45" height="44" viewBox="0 0 45 44" fill="none" xmlns="http://www.w3.org/2000/svg">
<path d="M0 0H44V44H0V0Z" fill="white"/>
<path d="M44 0H43.5V44H44H44.5V0H44Z" fill="#D7D3D0"/>
<path d="M21 14H16.8C15.1198 14 14.2798 14 13.638 14.327C13.0735 14.6146 12.6146 15.0736 12.327 15.638C12 16.2798 12 17.1199 12 18.8V27.2C12 28.8802 12 29.7203 12.327 30.362C12.6146 30.9265 13.0735 31.3854 13.638 31.673C14.2798 32 15.1198 32 16.8 32H25.2C26.8802 32 27.7202 32 28.362 31.673C28.9265 31.3854 29.3854 30.9265 29.673 30.362C30 29.7203 30 28.8802 30 27.2V23M18 26H19.6745C20.1637 26 20.4083 26 20.6385 25.9448C20.8425 25.8958 21.0376 25.815 21.2166 25.7053C21.4184 25.5816 21.5914 25.4087 21.9373 25.0628L31.5 15.5C32.3284 14.6716 32.3284 13.3284 31.5 12.5C30.6716 11.6716 29.3284 11.6716 28.5 12.5L18.9372 22.0628C18.5913 22.4087 18.4184 22.5816 18.2947 22.7834C18.185 22.9624 18.1042 23.1575 18.0552 23.3616C18 23.5917 18 23.8363 18 24.3255V26Z" stroke="#63615B" stroke-width="2" stroke-linecap="round" stroke-linejoin="round"/>
</svg>
